# xmcd
#
# Track frame offsets:
#  150
#  23526
#  44972
#  65135
#  87431
#  117180
#  137063
#
# Disc length: 2242 seconds
#
# Revision: 0
# Processed by: cddbd v1.5.1PL0 Copyright (c) Steve Scherf et al.
# Submitted via: AltoMP3_Maker 3.0
#
DISCID=6308c007
DTITLE=Shahla Sarshar - Kaboutareh Eshgh
DYEAR=1900
DGENRE=
TTITLE0=Kaboutareh Eshgh
TTITLE1=Nazarak
TTITLE2=Meykhoneh
TTITLE3=Geryeh Hayeh Masti
TTITLE4=Be Yadeh Hayedeh
TTITLE5=Nazanin
TTITLE6=Jodaee
EXTD=
EXTT0=
EXTT1=
EXTT2=
EXTT3=
EXTT4=
EXTT5=
EXTT6=
PLAYORDER=
